<svg viewBox="0 0 200 200" fill="none" xmlns="http://www.w3.org/2000/svg" role="img" aria-label="Avatar Youssef Naciri"><defs><linearGradient id="bgCL20240073" x1="0" y1="0" x2="0" y2="1"><stop stop-color="#4ade80"/><stop offset="1" stop-color="#16a34a"/></linearGradient></defs><rect width="200" height="200" fill="url(#bgCL20240073)"/><path d="M28 200c0-35 31-60 72-60s72 25 72 60z" fill="rgba(0,0,0,0.18)"/><rect x="90" y="116" width="20" height="28" rx="10" fill="#efb985"/><ellipse cx="100" cy="93" rx="34" ry="38" fill="#efb985"/><path d="M100 118c-16 0-28-7-32-20 0 22 14 36 32 36s32-14 32-36c-4 13-16 20-32 20z" fill="#4a2c17"/><path d="M66 86c0-26 16-44 34-44s34 18 34 44c-6-16-17-22-34-22S72 70 66 86z" fill="#4a2c17"/><path d="M80 85c3-2.5 9-2.5 12 0" stroke="#4a2c17" stroke-width="2.6" stroke-linecap="round"/><path d="M108 85c3-2.5 9-2.5 12 0" stroke="#4a2c17" stroke-width="2.6" stroke-linecap="round"/><circle cx="86" cy="94" r="3.5" fill="#2a1c12"/><circle cx="114" cy="94" r="3.5" fill="#2a1c12"/><path d="M89 108c5 4.5 17 4.5 22 0" stroke="#b56b4e" stroke-width="2.7" stroke-linecap="round" fill="none"/></svg>
