<svg viewBox="0 0 200 200" fill="none" xmlns="http://www.w3.org/2000/svg" role="img" aria-label="Avatar Nisrine Bennis"><defs><linearGradient id="bgCL20240045" x1="0" y1="0" x2="0" y2="1"><stop stop-color="#a78bfa"/><stop offset="1" stop-color="#7c3aed"/></linearGradient></defs><rect width="200" height="200" fill="url(#bgCL20240045)"/><path d="M28 200c0-35 31-60 72-60s72 25 72 60z" fill="rgba(0,0,0,0.18)"/><rect x="90" y="116" width="20" height="28" rx="10" fill="#e6b08a"/><ellipse cx="100" cy="93" rx="34" ry="38" fill="#e6b08a"/><path d="M56 96c0-32 19-54 44-54s44 22 44 54c0 19-4 42-11 59-2-24-6-43-13-47 4 19 5 42 2 55H78c-3-13-2-36 2-55-7 4-11 23-13 47-7-17-11-40-11-59z" fill="#2b1d12"/><path d="M64 88c2-28 19-46 36-46s34 18 36 46c-9-13-19-18-36-18s-27 5-36 18z" fill="#2b1d12"/><path d="M80 85c3-2.5 9-2.5 12 0" stroke="#2b1d12" stroke-width="2.6" stroke-linecap="round"/><path d="M108 85c3-2.5 9-2.5 12 0" stroke="#2b1d12" stroke-width="2.6" stroke-linecap="round"/><circle cx="86" cy="94" r="3.5" fill="#2a1c12"/><circle cx="114" cy="94" r="3.5" fill="#2a1c12"/><path d="M89 108c5 4.5 17 4.5 22 0" stroke="#b56b4e" stroke-width="2.7" stroke-linecap="round" fill="none"/></svg>
